<svg width="180" height="57" viewBox="0 0 180 57" fill="none" xmlns="http://www.w3.org/2000/svg">
<path fill-rule="evenodd" clip-rule="evenodd" d="M159.178 55.4638C146.248 55.6339 138.116 46.1745 136.074 35.2861C135.564 32.5299 135.904 29.0252 135.904 25.9628C135.904 17.3201 135.904 8.64333 135.904 0.000594345C143.22 -0.0674587 143.016 5.71704 143.016 12.9987C143.016 20.7568 141.961 33.7209 144.479 38.9609C145.84 41.8192 147.983 44.0649 150.433 45.8343C154.346 48.6245 159.212 48.3182 159.178 55.4638Z" fill="white"/>
<path fill-rule="evenodd" clip-rule="evenodd" d="M156.829 0.000594365C164.042 -0.0674586 163.838 5.71704 163.838 12.8966C163.838 20.7568 162.783 33.5848 165.301 38.9609C166.628 41.7851 168.84 44.0649 171.256 45.8343C172.515 46.753 174.148 47.0252 175.577 47.8078C178.027 49.1008 180.001 51.6868 180.001 55.4978C167.445 55.702 159.347 46.5488 157.067 36.3069C156.284 32.8021 156.829 27.9704 156.829 24.0573C156.829 15.993 156.829 7.99682 156.829 0.000594365Z" fill="white"/>
<path fill-rule="evenodd" clip-rule="evenodd" d="M21.1645 35.184C25.5199 35.184 29.8753 35.184 34.2307 35.184C32.121 29.7057 30.0454 24.2274 27.9358 18.7832C27.3913 17.32 26.6768 13.3389 24.1928 14.7681C22.7978 15.5507 21.0284 21.8796 20.2798 23.751C17.4556 30.7605 14.6314 37.7359 11.7732 44.7454C10.6163 47.5696 9.7656 51.7889 7.51986 53.5583C5.47827 55.1575 3.06238 55.4297 0 54.8513C0.68053 53.1159 1.36106 51.3806 2.04159 49.6112C3.64084 45.46 5.20605 41.3427 6.9414 37.3616C9.39131 31.2029 11.8412 25.0441 14.2911 18.9193C15.3119 16.4353 16.2987 13.9514 17.3195 11.5015C18.7826 9.0516 22.2874 6.53364 26.6427 7.35027C32.8696 8.47315 33.7543 13.8493 35.8639 19.1234C38.8583 26.9495 41.8526 34.8097 44.8469 42.6358C45.8677 45.3238 46.9225 48.0119 47.9433 50.7341C48.4878 52.1632 49.0322 53.6263 49.5766 55.0554C42.7373 56.3144 41.138 53.184 39.3006 48.1821C38.552 46.3106 37.8375 44.4392 37.0889 42.5337C28.8545 42.6358 21.2325 43.3163 21.1645 35.184Z" fill="white"/>
<path fill-rule="evenodd" clip-rule="evenodd" d="M83.3992 7.28204C84.5561 7.24802 85.4748 7.45217 86.3255 7.69036C86.3595 7.75841 86.3935 7.79244 86.3935 7.86049C82.6166 17.7282 78.8396 27.6299 75.0287 37.4976C73.7357 40.8322 72.4767 44.2008 71.1837 47.5354C70.5372 49.1687 70.1629 50.6658 69.2101 51.9588C67.5088 54.3067 63.4937 56.4503 59.2404 55.1573C53.592 53.422 52.367 46.9569 50.2574 41.6828C45.7319 30.4541 41.2063 19.1913 36.7148 7.96257C39.7772 7.17996 42.4313 7.72438 44.4048 9.25558C46.5825 10.9909 47.3651 15.0061 48.488 17.7622C51.1421 24.3633 53.8302 30.9305 56.4842 37.5316C57.5731 40.2537 58.6619 42.9758 59.7508 45.698C60.1931 46.7868 60.4653 48.5222 62.2007 48.2159C63.7999 47.9437 63.9701 46.0042 64.4805 44.6091C65.5013 41.921 66.5561 39.2329 67.5769 36.5108C69.9587 30.352 72.3746 24.1932 74.7565 18.0684C75.9134 15.2783 76.5258 11.127 78.6695 9.32363C79.4521 8.67713 80.4049 7.9966 81.4597 7.62231C82.1402 7.4862 82.7867 7.38412 83.3992 7.28204Z" fill="white"/>
<path fill-rule="evenodd" clip-rule="evenodd" d="M130.935 35.3541C124.504 35.3541 118.073 35.3541 111.676 35.3541C103.748 35.3541 96.8404 35.8986 96.8064 28.0044C105.721 28.0044 114.602 28.0044 123.517 28.0044C123.517 27.9704 123.517 27.9364 123.517 27.9364C121.578 21.7095 117.971 17.5243 111.676 15.6868C99.0861 11.9779 87.347 24.7719 91.6684 36.9874C94.5606 45.1538 104.837 51.5848 115.113 46.3107C118.413 44.6093 120.931 39.5734 126.307 41.2407C127.26 41.547 127.839 41.7511 128.689 42.3976C125.763 48.4203 120.489 52.6736 113.581 54.7152C109.6 55.9061 103.748 55.5319 100.107 54.375C90.2052 51.2445 79.9632 39.0971 84.5228 24.908C87.4831 15.6868 97.9973 5.17264 111.88 8.23503C113.888 8.67737 115.827 9.2218 117.529 10.0384C126.171 14.2917 131.82 22.1859 130.935 35.3541Z" fill="white"/>
</svg>
